<svg id="Camada_1" data-name="Camada 1" xmlns="http://www.w3.org/2000/svg" viewBox="0 0 1320.55 978.01"><defs><style>.cls-1{fill:rgb(245, 245, 245);}</style></defs><path class="cls-1" d="M653.24,1086.82v-85.38H519.13v85.38q0,26.12,6.19,36.41t22.35,10.3v8.52h-89v-8.52q16.17,0,22-10.41t5.88-36.26V903.48q0-27.09-6-37t-21.94-9.91V848h89v8.53q-16.17,0-22.35,10.65t-6.19,36.22v83.71H653.24V903.44q0-27.08-5.77-37t-21.72-9.9V848h88.14v8.53q-15.74,0-21.82,10.28T686,903.48v183.38q0,26.36,6.09,36.51t21.82,10.16v8.52H625.75v-8.52q16.37,0,21.93-10.17T653.24,1086.82Z" transform="translate(-252.17 -511.94)"/><path class="cls-1" d="M890.2,1095.43v13.29q-13.86,21-28.23,30.07t-34.53,9q-35.69,0-58.87-26.7t-23.19-67.8q0-41.35,22.14-69.68t54.26-28.32q26.44,0,46.17,21.31t19.73,50.88v3.76H775.81v2.5q0,30.09,7.66,52.26t22.36,34.71q14.68,12.54,30.64,12.54,14.89,0,25.5-7.4T890.2,1095.43Zm-114.39-72.94h82.9V1019q0-24.3-11.65-38.59T818,966.1q-18.46,0-29.7,15T775.81,1022.49Z" transform="translate(-252.17 -511.94)"/><path class="cls-1" d="M960.93,955.32h7.34v153.11q0,15.06,5.46,20.08t19.94,5v8.52H910.34v-8.52q18.27,0,23.51-4.91t5.25-20.24V996.51q0-16.59-4.83-21.88t-23.93-5.27v-8.53Zm-6.72-94a16.5,16.5,0,0,1,13.12,6.39,23.56,23.56,0,0,1,5.35,15.66,24.26,24.26,0,0,1-5.46,15.92q-5.46,6.65-13,6.64-7.77,0-13.43-6.64a23.7,23.7,0,0,1-5.67-15.92,23,23,0,0,1,5.56-15.66A17.31,17.31,0,0,1,954.21,861.33Z" transform="translate(-252.17 -511.94)"/><path class="cls-1" d="M1130.72,991.48l-39.34,43.13,63.21,75.6q10.65,12.93,18.28,17.74t18.92,5.58v8.52h-49.74l-79.13-90.73q0,71.65,5,76.93t20.36,5.28v8.52h-81.85v-8.52q17.63-.51,22.35-6.65t4.72-28.22V859.34q0-15.8-4.93-20.31t-22.14-4.52V826l49.11-6.27h7.34v229.84l40.76-44.71q11.71-12.84,11.72-22.91,0-12.08-18.47-12.58v-8.53h82.9v8.53h-7.34Q1150.44,969.36,1130.72,991.48Z" transform="translate(-252.17 -511.94)"/><path class="cls-1" d="M1366.2,1051.82q0,41.12-23.82,68.55t-59.5,27.45q-35.69,0-59.5-27.45t-23.82-68.55q0-41.61,23.71-69t59.61-27.45q35.89,0,59.61,27.45T1366.2,1051.82Zm-31.68.12q0-38.9-13.86-62.75t-37.78-23.85q-23.93,0-37.78,23.35t-13.85,63.25q0,39.16,13.75,62.51t37.88,23.34q24.13,0,37.89-23.6T1334.52,1051.94Z" transform="translate(-252.17 -511.94)"/><path class="cls-1" d="M795.5,1461.61c0,15.76-2.09,28.33-23.12,28.33a62.57,62.57,0,0,1-9.27-.82v-15.5a40.9,40.9,0,0,0,5.5.36c6.36,0,8.68-1.7,8.68-10.18v-93.34H795.5Z" transform="translate(-252.17 -511.94)"/><path class="cls-1" d="M827.08,1456.94,823,1488.53H804.43l19-118.07h25.72l19.75,118.07h-19l-4.64-31.59Zm16-16.74c-2.7-20-5.28-39.08-6.63-52.44h-.67c-.51,9.73-4,35-6.41,52.44Z" transform="translate(-252.17 -511.94)"/><path class="cls-1" d="M877.63,1370.46H903.9c18.75,0,28.31,9.26,28.31,30.14v7c0,19.48-7,32.43-29.33,32.43h-7v48.54H877.63Zm18.21,54.65h5c11.36,0,13.3-6.63,13.3-18.15v-5.81c0-8.58-1.56-15.66-11.68-15.66h-6.61Z" transform="translate(-252.17 -511.94)"/><path class="cls-1" d="M954,1456.94l-4.13,31.59H931.31l19-118.07h25.73l19.74,118.07h-19l-4.64-31.59Zm16-16.74c-2.7-20-5.28-39.08-6.63-52.44h-.66c-.51,9.73-4.06,35-6.42,52.44Z" transform="translate(-252.17 -511.94)"/><path class="cls-1" d="M1004.52,1488.53V1370.46h21.09c4.7,16.66,18.8,74.94,20.05,81.2h.19c-.83-14.52-.88-31.14-.88-50.54v-30.66h16.81v118.07h-20.29c-3.72-14.11-19.44-78.86-20.62-83.82h-.17c.86,14.3.79,30.3.79,51.53v32.29Z" transform="translate(-252.17 -511.94)"/><polygon class="cls-1" points="0 0 0 943.66 460.04 943.66 460.04 899.18 44.48 899.18 44.48 44.48 1276.07 44.48 1276.07 899.18 860.51 899.18 860.51 943.66 1320.55 943.66 1320.55 0 0 0 "/></svg>